<svg width="688" height="688" viewBox="0 0 688 688" fill="none" xmlns="http://www.w3.org/2000/svg">
<path d="M0.582031 344.032C0.582031 41.9175 41.7795 0.719971 343.895 0.719971C646.01 0.719971 687.207 41.9175 687.207 344.032C687.207 646.148 646.01 687.345 343.895 687.345C41.7795 687.345 0.582031 646.148 0.582031 344.032Z" fill="#952ed1"/>
<path d="M196.39 481.582H136.934C104.625 481.582 85.5453 445.365 103.817 418.718L252.345 202.116C270.155 176.143 309.569 179.846 322.229 208.682L401.71 389.722C417.126 424.837 379.249 459.515 345.627 441.068L306.591 419.65C289.207 410.112 267.463 414.691 255.402 430.431L228.263 465.85C220.665 475.766 208.883 481.582 196.39 481.582Z" fill="white"/>
<path d="M451.226 456.645L376.303 284.93C370.614 271.89 372.249 256.812 380.603 245.295L413.662 199.716C431.536 175.074 469.26 178.506 482.393 205.97L587.097 424.928C600.042 451.999 579.804 483.186 549.808 482.392L486.967 480.727C471.39 480.315 457.458 470.927 451.226 456.645Z" fill="white"/>
</svg>
